HIERARCHY
ROOT pelvis
{
  OFFSET 0 100 0
  CHANNELS 6 Xposition Yposition Zposition Zrotation Xrotation Yrotation
  JOINT pelvis_right_femur
  {
    OFFSET -10.78128 -3.44521 -0.5502486
    CHANNELS 3 Zrotation Xrotation Yrotation
    JOINT right_femur_tibia
    {
      OFFSET -0.8047443 -44.0398 -0.1307829
      CHANNELS 3 Zrotation Xrotation Yrotation
      JOINT right_tibia_foot
      {
        OFFSET 3.006224 -47.83518 -5
        CHANNELS 3 Zrotation Xrotation Yrotation
        End Site
        {
          OFFSET 0 -5 15
        }
      }
    }
  }
  JOINT pelvis_left_femur
  {
    OFFSET 10.78128 -3.44521 -0.5502486
    CHANNELS 3 Zrotation Xrotation Yrotation
    JOINT left_femur_tibia
    {
      OFFSET 0.8047443 -44.0398 -0.1307829
      CHANNELS 3 Zrotation Xrotation Yrotation
      JOINT left_tibia_foot
      {
        OFFSET -4.370144 -48.10324 -4.275266
        CHANNELS 3 Zrotation Xrotation Yrotation
        End Site
        {
          OFFSET 0 -5 15
        }
      }
    }
  }
  JOINT pelvis_spine1
  {
    OFFSET 0 6.468898 -3.129235
    CHANNELS 3 Zrotation Xrotation Yrotation
    JOINT spine1
    {
      OFFSET 0 23.15396 4.99043
      CHANNELS 3 Zrotation Xrotation Yrotation
      JOINT spine2
      {
        OFFSET 0 20.79997 -5.064912
        CHANNELS 3 Zrotation Xrotation Yrotation
        JOINT neck
        {
          OFFSET 0 14.38658 9.616178
          CHANNELS 3 Zrotation Xrotation Yrotation
          End Site
          {
            OFFSET 0 20 0
          }
        }
      }
      JOINT right_manubrium
      {
        OFFSET -5.722621 16.35077 3.967754
        CHANNELS 3 Zrotation Xrotation Yrotation
        JOINT right_clavicle
        {
          OFFSET -13.16364 1.694482 -4.693211
          CHANNELS 3 Zrotation Xrotation Yrotation
          JOINT right_humerus
          {
            OFFSET -28.5034 -0.3100689 -2.792744
            CHANNELS 3 Zrotation Xrotation Yrotation
            JOINT right_radius
            {
              OFFSET -25.15693 0.02248979 -1.271978
              CHANNELS 3 Zrotation Xrotation Yrotation
              End Site
              {
                OFFSET -15 0 0
              }
            }
          }
        }
      }
      JOINT left_manubrium
      {
        OFFSET 5.722621 16.35077 3.967754
        CHANNELS 3 Zrotation Xrotation Yrotation
        JOINT left_clavicle
        {
          OFFSET 13.16364 1.694482 -4.693211
          CHANNELS 3 Zrotation Xrotation Yrotation
          JOINT left_humerus
          {
            OFFSET 29.39168 -1.063119 -2.237045
            CHANNELS 3 Zrotation Xrotation Yrotation
            JOINT left_radius
            {
              OFFSET 24.59957 -0.9528479 0.9047498
              CHANNELS 3 Zrotation Xrotation Yrotation
              End Site
              {
                OFFSET 15 -0 -0
              }
            }
          }
        }
      }
    }
  }
}
MOTION
Frames: 13
Frame Time: 0.0416666666667
0 103.5113 0 1.838797 -2.509857 0.1369248 1.807962 -11.40226 7.671476 -0 37.94614 -0 -6.14911 -17.16972 -3.178533 -7.257284 10.84357 -23.45646 -0 3.429739 -0 8.93814 -14.23163 26.16277 -2.769648 -4.018331 5.266484 3.019959 9.507216 -7.773165 1.489637 21.61045 6.119153 2.066092 -26.14123 9.977423 5.939568 -19.68923 10.9626 85.86457 34.08079 -19.99487 -0 0 16.14825 -5.552217 7.471675 3.768368 6.025596 -20.75007 -0.3332792 -95.97597 26.09569 24.7784 0 0 -13.77547 9.406664 17.33822 4.044222
0.3235616 103.361 1.480022 1.582774 -1.589454 0.179487 2.49683 -14.23698 8.652816 -0 38.30911 -0 -5.284806 -17.13178 -3.571457 -7.244726 11.2418 -23.65268 -0 3.943563 -0 8.343479 -15.74533 26.23748 -2.867388 -4.117497 5.329504 2.963353 9.482472 -7.671362 1.477683 21.79279 6.030749 1.980411 -25.94256 9.922326 5.957034 -19.74263 10.89047 85.68934 34.02966 -19.7262 -0 0 16.31215 -5.657507 7.367046 3.827571 5.951515 -20.70291 -0.3292562 -96.27588 26.21369 25.1266 0 0 -13.09795 9.248626 17.57027 4.228584
0.59152 103.1518 3.060891 1.102414 -1.129407 0.2409882 3.2269 -17.64087 8.223059 -0 36.97574 -0 -5.517816 -15.14497 -3.546757 -6.999473 11.85189 -23.30894 -0 5.03217 -0 5.945407 -18.49472 25.39053 -2.49133 -3.650116 5.142097 3.097716 9.606002 -7.911395 1.444997 21.31763 6.2689 2.218776 -26.45308 9.962902 5.851718 -19.47093 11.10621 86.33845 34.31973 -20.5354 -0 0 15.43584 -5.471578 7.579513 3.912984 5.972672 -20.80892 -0.544622 -95.15207 26.03693 23.98043 0 0 -15.49555 9.471706 16.45217 3.954696
0.8344821 102.9041 4.770259 0.6434443 -0.2757252 0.3197777 4.105626 -20.95782 8.338998 -0 35.19426 -0 -5.321087 -13.84744 -3.583303 -6.774886 12.08825 -22.80588 -0 5.51551 -0 4.872202 -20.32006 24.79992 -2.285586 -3.386416 5.024114 3.176971 9.668299 -8.054706 1.41692 21.03062 6.433113 2.383853 -26.71256 9.97678 5.795977 -19.30702 11.22901 86.69709 34.48705 -20.98332 -0 0 14.92817 -5.452475 7.755867 3.983139 6.028626 -20.91143 -0.6576134 -94.47671 25.82955 23.26763 0 0 -16.83911 9.654425 15.79106 3.738272
1.070567 102.5702 6.739168 0.1322878 0.749494 0.4356042 5.107551 -24.64569 8.235159 -0 32.14259 -0 -5.217989 -12.10091 -3.416527 -6.520045 12.2875 -21.90391 -0 5.843145 -0 4.264112 -21.9161 24.05288 -2.01468 -3.139795 4.901509 3.307185 9.736619 -8.303836 1.384121 20.63007 6.598287 2.532003 -27.11652 10.00522 5.687187 -19.16672 11.38049 87.28899 34.59204 -21.79498 -0 0 14.37394 -5.206977 7.867258 3.976191 6.092449 -21.10488 -0.791871 -93.70824 25.80231 22.51018 0 0 -18.83505 9.685975 14.98488 3.779997
1.311386 102.1377 9.059707 -0.3665059 1.878686 0.6129875 6.107575 -28.20344 8.108244 -0 28.57978 -0 -5.155469 -10.286 -3.127117 -6.274079 12.50894 -20.8606 -0 6.104459 -0 4.049712 -23.08274 23.24626 -1.771633 -2.913683 4.788261 3.42103 9.79553 -8.528209 1.337161 20.26679 6.76469 2.683299 -27.43794 10.00585 5.584557 -19.03038 11.51444 87.83301 34.6895 -22.52773 -0 0 13.84368 -5.07119 7.993052 4.012857 6.164858 -21.32064 -0.9289822 -92.98585 25.73239 21.79989 0 0 -20.64752 9.706049 14.20502 3.842699
1.560732 101.6 11.8463 -0.873121 3.027766 0.8783868 7.054979 -31.5424 7.830806 -0 24.61481 -0 -5.279552 -8.272682 -2.686298 -6.013241 12.8629 -19.70016 -0 6.590241 -0 3.857059 -23.8693 22.20246 -1.531279 -2.709694 4.690928 3.529827 9.857774 -8.75771 1.273093 19.91719 6.919989 2.822016 -27.719 9.973985 5.471508 -18.90828 11.64214 88.41567 34.75463 -23.31014 -0 0 13.3184 -4.959909 8.090296 4.069174 6.223615 -21.57744 -1.092511 -92.2989 25.73084 21.15865 0 0 -22.48503 9.615177 13.40394 4.071975
1.815121 100.9754 15.19034 -1.384891 4.064261 1.251705 7.872395 -34.29353 7.420396 -0 20.79946 -0 -5.646832 -6.238881 -2.151152 -5.722885 13.37504 -18.55662 -0 7.632507 -0 3.328878 -24.1799 20.81595 -1.316208 -2.516851 4.609279 3.614644 9.929972 -8.958825 1.19051 19.62355 7.062088 2.954663 -27.89576 9.89336 5.368832 -18.78443 11.7569 88.96825 34.80841 -24.02994 -0 0 12.79576 -4.977276 8.193257 4.182003 6.260693 -21.84982 -1.285093 -91.66644 25.73521 20.58486 0 0 -24.13272 9.44535 12.61668 4.400735
2.068316 100.3116 19.1609 -1.898561 4.841838 1.735348 8.502437 -36.09797 6.859746 -0 17.57373 -0 -6.277964 -4.341469 -1.576242 -5.386724 13.99863 -17.48867 -0 9.652386 -0 2.170103 -23.86437 18.97797 -1.132064 -2.337846 4.550046 3.669285 10.02118 -9.125656 1.090325 19.40271 7.178699 3.072413 -27.95186 9.755409 5.283275 -18.66207 11.85905 89.48227 34.84482 -24.67666 -0 0 12.28772 -5.133004 8.298911 4.351328 6.259819 -22.12568 -1.512988 -91.11444 25.77365 20.10933 0 0 -25.54017 9.160334 11.86396 4.867449
2.316979 99.69654 23.77751 -2.387223 5.215773 2.298704 8.926275 -36.5709 6.210258 -0 15.40133 -0 -7.088999 -2.834399 -1.059195 -5.00419 14.55253 -16.52462 -0 13.08994 -0 0.3049323 -22.71032 16.72433 -0.9907371 -2.169654 4.517062 3.684149 10.13831 -9.242812 0.9755997 19.27716 7.260579 3.171305 -27.86081 9.553569 5.226503 -18.53879 11.94732 89.92059 34.87067 -25.19634 -0 0 11.80737 -5.465922 8.422975 4.588137 6.208184 -22.38088 -1.775186 -90.66171 25.8373 19.74501 0 0 -26.60437 8.755907 11.17405 5.45888
2.565684 99.25793 28.99429 -2.799548 5.086456 2.869378 9.171158 -35.43513 5.578387 -0 14.53484 -0 -7.922306 -1.959359 -0.7070964 -4.594665 14.70888 -15.61353 -0 18.31709 -0 -2.025194 -20.53578 14.27236 -0.9004132 -2.012315 4.517289 3.65187 10.28493 -9.298639 0.8506752 19.26151 7.297654 3.245119 -27.60983 9.285907 5.204773 -18.42 12.02132 90.25042 34.89009 -25.54569 -0 0 11.37959 -5.994451 8.573434 4.897718 6.092838 -22.5905 -2.067305 -90.32894 25.93492 19.516 0 0 -27.26042 8.217153 10.57148 6.179394
2.827665 99.14322 34.6906 -3.066738 4.444398 3.339955 9.275264 -32.63155 5.077564 -0 14.86961 -0 -8.610922 -1.881766 -0.5950603 -4.196578 14.02388 -14.64201 -0 25.4537 -0 -4.280789 -17.34296 11.99785 -0.8686684 -1.864703 4.558118 3.565461 10.45878 -9.279887 0.7211434 19.36425 7.283264 3.290219 -27.19309 8.955451 5.219724 -18.31405 12.08019 90.42962 34.91287 -25.66806 -0 0 11.03615 -6.739121 8.761322 5.290256 5.90552 -22.72655 -2.378257 -90.12914 26.06525 19.44109 0 0 -27.45723 7.541671 10.0748 7.01728
3.118901 99.47284 40.68438 -3.118135 3.385419 3.596062 9.21901 -28.36727 4.73054 -0 15.83928 -0 -9.077157 -2.599177 -0.7029269 -3.847333 12.05055 -13.481 -0 34.17637 -0 -5.856593 -13.44759 10.26692 -0.9010032 -1.726685 4.648343 3.41918 10.64967 -9.173773 0.5934627 19.58412 7.215181 3.305393 -26.61637 8.571323 5.265099 -18.23518 12.12267 90.41158 34.95179 -25.50102 -0 0 10.81864 -7.716563 8.995812 5.779428 5.644777 -22.76194 -2.689666 -90.06846 26.22365 19.5379 0 0 -27.17496 6.735667 9.694206 7.953991
